<svg width="24" height="24" viewBox="0 0 24 24" fill="none" xmlns="http://www.w3.org/2000/svg">
<path fill-rule="evenodd" clip-rule="evenodd" d="M12.75 15H21V16.5H12.75V22.5H11.25V16.5H3V15H11.25V9H1.5V21C1.5 22.6567 2.84325 24 4.5 24H19.5C21.1567 24 22.5 22.6567 22.5 21V9H12.75V15ZM14.25 4.5C13.422 4.5 12.75 3.828 12.75 3C12.75 2.172 13.422 1.5 14.25 1.5C15.078 1.5 15.75 2.172 15.75 3C15.75 3.828 15.078 4.5 14.25 4.5ZM9.75 4.5C8.922 4.5 8.25 3.828 8.25 3C8.25 2.172 8.922 1.5 9.75 1.5C10.578 1.5 11.25 2.172 11.25 3C11.25 3.828 10.578 4.5 9.75 4.5ZM22.5 4.5H16.8337C17.0917 4.0575 17.25 3.549 17.25 3C17.25 1.34325 15.9067 0 14.25 0C13.3485 0 12.5498 0.405754 12 1.035C11.4502 0.405754 10.6515 0 9.75 0C8.09325 0 6.75 1.34325 6.75 3C6.75 3.549 6.90825 4.0575 7.16625 4.5H1.5C0.672 4.5 0 5.172 0 6V7.5H24V6C24 5.172 23.328 4.5 22.5 4.5Z" fill="#FF0000"/>
</svg>
