<svg width="24" height="24" viewBox="0 0 24 24" fill="none" xmlns="http://www.w3.org/2000/svg">
<path fill-rule="evenodd" clip-rule="evenodd" d="M18.5462 5.14285C18.5462 3.77888 17.8565 2.47078 16.6288 1.50631C15.4012 0.541835 13.7361 0 12 0C10.2639 0 8.59881 0.541835 7.37117 1.50631C6.14353 2.47078 5.45385 3.77888 5.45385 5.14285C5.45385 6.50682 6.14353 7.81493 7.37117 8.7794C8.59881 9.74387 10.2639 10.2857 12 10.2857C13.7361 10.2857 15.4012 9.74387 16.6288 8.7794C17.8565 7.81493 18.5462 6.50682 18.5462 5.14285ZM23.9998 21.2628C23.9508 18.788 22.6649 16.4275 20.4199 14.6909C18.1748 12.9544 15.1506 11.9811 12 11.9811C8.84943 11.9811 5.8252 12.9544 3.58013 14.6909C1.33507 16.4275 0.0492268 18.788 0.000173569 21.2628C-0.00361061 21.4295 0.0545082 21.5933 0.167412 21.7344C0.280315 21.8755 0.44311 21.9876 0.63588 22.0571C4.20111 23.3414 8.07789 24.0042 12 24C16.0528 24 19.9034 23.3051 23.3641 22.0571C23.5569 21.9876 23.7197 21.8755 23.8326 21.7344C23.9455 21.5933 24.0036 21.4295 23.9998 21.2628Z" fill="#FF0000"/>
</svg>
