<svg width="24" height="24" viewBox="0 0 24 24" fill="none" xmlns="http://www.w3.org/2000/svg">
<path fill-rule="evenodd" clip-rule="evenodd" d="M19.8395 0.390977C19.9835 0.0973381 20.3054 -0.0551374 20.6329 0.0182754C20.952 0.0945131 21.1765 0.378277 21.1765 0.705803V7.13077C22.7859 7.4583 24 8.88419 24 10.5882C24 12.2922 22.7859 13.7195 21.1765 14.047V20.4706C21.1765 20.7981 20.952 21.0833 20.6329 21.1581C20.5797 21.1704 20.5252 21.1766 20.4706 21.1765C20.2066 21.1765 19.9609 21.0296 19.8395 20.7868C17.2405 15.5901 12.0522 15.5294 12 15.5294H7.05883V22.5882H8.15576C8.00753 21.4616 7.93694 19.5007 8.94918 18.2047C9.60424 17.3661 10.5699 16.9412 11.8235 16.9412V18.3529C11.0174 18.3529 10.4414 18.5887 10.0631 19.0715C9.2033 20.1699 9.49976 22.3694 9.6847 23.1247C9.73695 23.335 9.68895 23.5581 9.55624 23.729C9.42211 23.8998 9.216 24 9 24H6.35294C5.9633 24 5.64706 23.6852 5.64706 23.2941V15.5294H4.94119C2.99435 15.5294 1.41176 13.9468 1.41176 12V11.2941H0.705887C0.316238 11.2941 0 10.9792 0 10.5882C0 10.1985 0.316238 9.88229 0.705875 9.88229H1.41176V9.17642C1.41176 7.23099 2.99435 5.64698 4.94117 5.64698H11.9986C12.2104 5.64558 17.2546 5.55947 19.8395 0.390977ZM19.7647 3.12135C17.3308 6.15099 14.112 6.84841 12.7059 7.00936V14.1684C14.112 14.3294 17.3308 15.0254 19.7647 18.0564V3.12135ZM11.2941 7.05877H4.94117C3.77365 7.05877 2.82353 8.0089 2.82353 9.17642V12C2.82353 13.1675 3.77365 14.1176 4.94117 14.1176H11.2941V7.05877ZM21.1765 8.60183V12.576C21.9967 12.2837 22.5882 11.5072 22.5882 10.5882C22.5882 9.66913 21.9967 8.89406 21.1765 8.60183Z" fill="#FF0000"/>
</svg>
